<mxfile host="app.diagrams.net" modified="2024-05-01T20:29:18.272Z" agent="Mozilla/5.0 (Windows NT 10.0; Win64; x64) AppleWebKit/537.36 (KHTML, like Gecko) Chrome/124.0.0.0 Safari/537.36" etag="6vW4zbVb_OtFJwwyQ5Od" version="24.3.1" type="github">
  <diagram name="第 1 页" id="LGwyGFgfm9JmbtretNlf">
    <mxGraphModel dx="842" dy="506" grid="1" gridSize="10" guides="1" tooltips="1" connect="1" arrows="1" fold="1" page="1" pageScale="1" pageWidth="827" pageHeight="1169" math="0" shadow="0">
      <root>
        <mxCell id="0" />
        <mxCell id="1" parent="0" />
        <mxCell id="6l5dRhKgw-I8UTFX7wu1-4" style="edgeStyle=orthogonalEdgeStyle;rounded=0;orthogonalLoop=1;jettySize=auto;html=1;exitX=1;exitY=0.3333333333333333;exitDx=0;exitDy=0;exitPerimeter=0;entryX=0.036;entryY=0.622;entryDx=0;entryDy=0;entryPerimeter=0;" edge="1" parent="1" source="6l5dRhKgw-I8UTFX7wu1-1" target="6l5dRhKgw-I8UTFX7wu1-20">
          <mxGeometry relative="1" as="geometry">
            <mxPoint x="260" y="320" as="targetPoint" />
            <Array as="points">
              <mxPoint x="140" y="420" />
              <mxPoint x="140" y="320" />
              <mxPoint x="282" y="320" />
            </Array>
          </mxGeometry>
        </mxCell>
        <mxCell id="6l5dRhKgw-I8UTFX7wu1-5" style="edgeStyle=orthogonalEdgeStyle;rounded=0;orthogonalLoop=1;jettySize=auto;html=1;exitX=1;exitY=0.3333333333333333;exitDx=0;exitDy=0;exitPerimeter=0;entryX=0.004;entryY=0.541;entryDx=0;entryDy=0;entryPerimeter=0;" edge="1" parent="1" source="6l5dRhKgw-I8UTFX7wu1-1" target="6l5dRhKgw-I8UTFX7wu1-19">
          <mxGeometry relative="1" as="geometry">
            <mxPoint x="240" y="520" as="targetPoint" />
          </mxGeometry>
        </mxCell>
        <mxCell id="6l5dRhKgw-I8UTFX7wu1-1" value="用户" style="shape=umlActor;verticalLabelPosition=bottom;verticalAlign=top;html=1;outlineConnect=0;" vertex="1" parent="1">
          <mxGeometry x="40" y="400" width="30" height="60" as="geometry" />
        </mxCell>
        <mxCell id="6l5dRhKgw-I8UTFX7wu1-6" value="浏览器访问" style="text;html=1;align=center;verticalAlign=middle;whiteSpace=wrap;rounded=0;" vertex="1" parent="1">
          <mxGeometry x="180" y="280" width="80" height="30" as="geometry" />
        </mxCell>
        <mxCell id="6l5dRhKgw-I8UTFX7wu1-7" value="app访问" style="text;html=1;align=center;verticalAlign=middle;whiteSpace=wrap;rounded=0;" vertex="1" parent="1">
          <mxGeometry x="170" y="570" width="60" height="30" as="geometry" />
        </mxCell>
        <mxCell id="6l5dRhKgw-I8UTFX7wu1-9" value="Nacos" style="rounded=0;whiteSpace=wrap;html=1;" vertex="1" parent="1">
          <mxGeometry x="630" y="250" width="120" height="60" as="geometry" />
        </mxCell>
        <mxCell id="6l5dRhKgw-I8UTFX7wu1-32" style="edgeStyle=orthogonalEdgeStyle;rounded=0;orthogonalLoop=1;jettySize=auto;html=1;exitX=0.5;exitY=0;exitDx=0;exitDy=0;entryX=1;entryY=0.5;entryDx=0;entryDy=0;" edge="1" parent="1" target="6l5dRhKgw-I8UTFX7wu1-9">
          <mxGeometry relative="1" as="geometry">
            <mxPoint x="750" y="540" as="sourcePoint" />
            <mxPoint x="800" y="280" as="targetPoint" />
            <Array as="points">
              <mxPoint x="820" y="540" />
              <mxPoint x="820" y="280" />
            </Array>
          </mxGeometry>
        </mxCell>
        <mxCell id="6l5dRhKgw-I8UTFX7wu1-41" style="edgeStyle=orthogonalEdgeStyle;rounded=0;orthogonalLoop=1;jettySize=auto;html=1;exitX=1;exitY=0.5;exitDx=0;exitDy=0;entryX=0.25;entryY=1;entryDx=0;entryDy=0;startArrow=classic;startFill=1;" edge="1" parent="1" source="6l5dRhKgw-I8UTFX7wu1-10" target="6l5dRhKgw-I8UTFX7wu1-11">
          <mxGeometry relative="1" as="geometry" />
        </mxCell>
        <mxCell id="6l5dRhKgw-I8UTFX7wu1-57" style="edgeStyle=orthogonalEdgeStyle;rounded=0;orthogonalLoop=1;jettySize=auto;html=1;exitX=0.25;exitY=1;exitDx=0;exitDy=0;entryX=0;entryY=0.5;entryDx=0;entryDy=0;" edge="1" parent="1" source="6l5dRhKgw-I8UTFX7wu1-10" target="6l5dRhKgw-I8UTFX7wu1-54">
          <mxGeometry relative="1" as="geometry" />
        </mxCell>
        <mxCell id="6l5dRhKgw-I8UTFX7wu1-10" value="项目服务" style="rounded=0;whiteSpace=wrap;html=1;" vertex="1" parent="1">
          <mxGeometry x="630" y="530" width="120" height="60" as="geometry" />
        </mxCell>
        <mxCell id="6l5dRhKgw-I8UTFX7wu1-30" style="edgeStyle=orthogonalEdgeStyle;rounded=0;orthogonalLoop=1;jettySize=auto;html=1;exitX=0.5;exitY=0;exitDx=0;exitDy=0;entryX=1;entryY=0.5;entryDx=0;entryDy=0;" edge="1" parent="1" source="6l5dRhKgw-I8UTFX7wu1-11" target="6l5dRhKgw-I8UTFX7wu1-9">
          <mxGeometry relative="1" as="geometry" />
        </mxCell>
        <mxCell id="6l5dRhKgw-I8UTFX7wu1-59" style="edgeStyle=orthogonalEdgeStyle;rounded=0;orthogonalLoop=1;jettySize=auto;html=1;exitX=0.75;exitY=1;exitDx=0;exitDy=0;entryX=1;entryY=0.5;entryDx=0;entryDy=0;" edge="1" parent="1" source="6l5dRhKgw-I8UTFX7wu1-11" target="6l5dRhKgw-I8UTFX7wu1-54">
          <mxGeometry relative="1" as="geometry" />
        </mxCell>
        <mxCell id="6l5dRhKgw-I8UTFX7wu1-69" style="edgeStyle=orthogonalEdgeStyle;rounded=0;orthogonalLoop=1;jettySize=auto;html=1;exitX=1;exitY=1;exitDx=0;exitDy=0;entryX=0;entryY=0.5;entryDx=0;entryDy=0;" edge="1" parent="1" source="6l5dRhKgw-I8UTFX7wu1-11" target="6l5dRhKgw-I8UTFX7wu1-64">
          <mxGeometry relative="1" as="geometry" />
        </mxCell>
        <mxCell id="6l5dRhKgw-I8UTFX7wu1-11" value="系统服务" style="rounded=0;whiteSpace=wrap;html=1;" vertex="1" parent="1">
          <mxGeometry x="880" y="385" width="120" height="60" as="geometry" />
        </mxCell>
        <mxCell id="6l5dRhKgw-I8UTFX7wu1-60" style="edgeStyle=orthogonalEdgeStyle;rounded=0;orthogonalLoop=1;jettySize=auto;html=1;exitX=0;exitY=0.75;exitDx=0;exitDy=0;entryX=0;entryY=0.5;entryDx=0;entryDy=0;" edge="1" parent="1" source="6l5dRhKgw-I8UTFX7wu1-13" target="6l5dRhKgw-I8UTFX7wu1-54">
          <mxGeometry relative="1" as="geometry">
            <Array as="points">
              <mxPoint x="600" y="436" />
              <mxPoint x="600" y="765" />
            </Array>
          </mxGeometry>
        </mxCell>
        <mxCell id="6l5dRhKgw-I8UTFX7wu1-13" value="认证中心" style="rounded=0;whiteSpace=wrap;html=1;" vertex="1" parent="1">
          <mxGeometry x="650" y="390.5" width="120" height="60" as="geometry" />
        </mxCell>
        <mxCell id="6l5dRhKgw-I8UTFX7wu1-28" style="edgeStyle=orthogonalEdgeStyle;rounded=0;orthogonalLoop=1;jettySize=auto;html=1;exitX=0.5;exitY=0;exitDx=0;exitDy=0;exitPerimeter=0;entryX=0;entryY=0.5;entryDx=0;entryDy=0;" edge="1" parent="1" source="6l5dRhKgw-I8UTFX7wu1-17" target="6l5dRhKgw-I8UTFX7wu1-9">
          <mxGeometry relative="1" as="geometry" />
        </mxCell>
        <mxCell id="6l5dRhKgw-I8UTFX7wu1-37" style="edgeStyle=orthogonalEdgeStyle;rounded=0;orthogonalLoop=1;jettySize=auto;html=1;exitX=1;exitY=0.5;exitDx=0;exitDy=0;exitPerimeter=0;entryX=0;entryY=0.5;entryDx=0;entryDy=0;" edge="1" parent="1" source="6l5dRhKgw-I8UTFX7wu1-17" target="6l5dRhKgw-I8UTFX7wu1-13">
          <mxGeometry relative="1" as="geometry" />
        </mxCell>
        <mxCell id="6l5dRhKgw-I8UTFX7wu1-38" style="edgeStyle=orthogonalEdgeStyle;rounded=0;orthogonalLoop=1;jettySize=auto;html=1;exitX=0.5;exitY=1;exitDx=0;exitDy=0;exitPerimeter=0;entryX=0;entryY=0.5;entryDx=0;entryDy=0;" edge="1" parent="1" source="6l5dRhKgw-I8UTFX7wu1-17" target="6l5dRhKgw-I8UTFX7wu1-10">
          <mxGeometry relative="1" as="geometry" />
        </mxCell>
        <mxCell id="6l5dRhKgw-I8UTFX7wu1-39" style="edgeStyle=orthogonalEdgeStyle;rounded=0;orthogonalLoop=1;jettySize=auto;html=1;exitX=0.5;exitY=1;exitDx=0;exitDy=0;exitPerimeter=0;entryX=0.5;entryY=1;entryDx=0;entryDy=0;" edge="1" parent="1" source="6l5dRhKgw-I8UTFX7wu1-17" target="6l5dRhKgw-I8UTFX7wu1-11">
          <mxGeometry relative="1" as="geometry">
            <Array as="points">
              <mxPoint x="504" y="630" />
              <mxPoint x="940" y="630" />
            </Array>
          </mxGeometry>
        </mxCell>
        <mxCell id="6l5dRhKgw-I8UTFX7wu1-56" style="edgeStyle=orthogonalEdgeStyle;rounded=0;orthogonalLoop=1;jettySize=auto;html=1;exitX=0.5;exitY=1;exitDx=0;exitDy=0;exitPerimeter=0;entryX=0;entryY=0.5;entryDx=0;entryDy=0;" edge="1" parent="1" source="6l5dRhKgw-I8UTFX7wu1-17" target="6l5dRhKgw-I8UTFX7wu1-54">
          <mxGeometry relative="1" as="geometry" />
        </mxCell>
        <mxCell id="6l5dRhKgw-I8UTFX7wu1-17" value="" style="outlineConnect=0;dashed=0;verticalLabelPosition=bottom;verticalAlign=top;align=center;html=1;shape=mxgraph.aws3.internet_gateway;fillColor=#F58534;gradientColor=none;" vertex="1" parent="1">
          <mxGeometry x="470" y="400" width="69" height="72" as="geometry" />
        </mxCell>
        <mxCell id="6l5dRhKgw-I8UTFX7wu1-19" value="" style="verticalLabelPosition=bottom;verticalAlign=top;html=1;shadow=0;dashed=0;strokeWidth=1;shape=mxgraph.android.phone2;" vertex="1" parent="1">
          <mxGeometry x="280" y="480" width="80" height="130" as="geometry" />
        </mxCell>
        <mxCell id="6l5dRhKgw-I8UTFX7wu1-20" value="" style="image;aspect=fixed;html=1;points=[];align=center;fontSize=12;image=img/lib/azure2/general/Browser.svg;" vertex="1" parent="1">
          <mxGeometry x="300" y="290" width="65" height="52" as="geometry" />
        </mxCell>
        <mxCell id="6l5dRhKgw-I8UTFX7wu1-22" value="浏览器" style="text;html=1;align=center;verticalAlign=middle;whiteSpace=wrap;rounded=0;" vertex="1" parent="1">
          <mxGeometry x="302.5" y="360" width="60" height="30" as="geometry" />
        </mxCell>
        <mxCell id="6l5dRhKgw-I8UTFX7wu1-23" value="移动端" style="text;html=1;align=center;verticalAlign=middle;whiteSpace=wrap;rounded=0;" vertex="1" parent="1">
          <mxGeometry x="290" y="640" width="60" height="30" as="geometry" />
        </mxCell>
        <mxCell id="6l5dRhKgw-I8UTFX7wu1-25" value="" style="endArrow=classic;html=1;rounded=0;exitX=0.939;exitY=0.558;exitDx=0;exitDy=0;exitPerimeter=0;entryX=0;entryY=0.5;entryDx=0;entryDy=0;entryPerimeter=0;edgeStyle=orthogonalEdgeStyle;" edge="1" parent="1" target="6l5dRhKgw-I8UTFX7wu1-17">
          <mxGeometry width="50" height="50" relative="1" as="geometry">
            <mxPoint x="359.99500000000006" y="321.01599999999996" as="sourcePoint" />
            <mxPoint x="528.96" y="342" as="targetPoint" />
          </mxGeometry>
        </mxCell>
        <mxCell id="6l5dRhKgw-I8UTFX7wu1-26" value="" style="endArrow=classic;html=1;rounded=0;exitX=0.973;exitY=0.522;exitDx=0;exitDy=0;exitPerimeter=0;entryX=0;entryY=0.5;entryDx=0;entryDy=0;entryPerimeter=0;edgeStyle=orthogonalEdgeStyle;" edge="1" parent="1" source="6l5dRhKgw-I8UTFX7wu1-19" target="6l5dRhKgw-I8UTFX7wu1-17">
          <mxGeometry width="50" height="50" relative="1" as="geometry">
            <mxPoint x="420" y="510" as="sourcePoint" />
            <mxPoint x="470" y="460" as="targetPoint" />
          </mxGeometry>
        </mxCell>
        <mxCell id="6l5dRhKgw-I8UTFX7wu1-27" value="api调用" style="text;html=1;align=center;verticalAlign=middle;whiteSpace=wrap;rounded=0;" vertex="1" parent="1">
          <mxGeometry x="410" y="400" width="60" height="30" as="geometry" />
        </mxCell>
        <mxCell id="6l5dRhKgw-I8UTFX7wu1-29" value="服务发现，注册，配置获取" style="text;html=1;align=center;verticalAlign=middle;whiteSpace=wrap;rounded=0;" vertex="1" parent="1">
          <mxGeometry x="510" y="250" width="110" height="20" as="geometry" />
        </mxCell>
        <mxCell id="6l5dRhKgw-I8UTFX7wu1-31" style="edgeStyle=orthogonalEdgeStyle;rounded=0;orthogonalLoop=1;jettySize=auto;html=1;exitX=0.5;exitY=0;exitDx=0;exitDy=0;entryX=0.561;entryY=0.986;entryDx=0;entryDy=0;entryPerimeter=0;" edge="1" parent="1" source="6l5dRhKgw-I8UTFX7wu1-13" target="6l5dRhKgw-I8UTFX7wu1-9">
          <mxGeometry relative="1" as="geometry">
            <Array as="points">
              <mxPoint x="710" y="350" />
              <mxPoint x="697" y="350" />
            </Array>
          </mxGeometry>
        </mxCell>
        <mxCell id="6l5dRhKgw-I8UTFX7wu1-33" value="后台系统" style="swimlane;whiteSpace=wrap;html=1;startSize=23;" vertex="1" parent="1">
          <mxGeometry x="450" y="40" width="835" height="860" as="geometry" />
        </mxCell>
        <mxCell id="6l5dRhKgw-I8UTFX7wu1-15" value="" style="outlineConnect=0;dashed=0;verticalLabelPosition=bottom;verticalAlign=top;align=center;html=1;shape=mxgraph.aws3.mysql_db_instance;fillColor=#2E73B8;gradientColor=none;" vertex="1" parent="6l5dRhKgw-I8UTFX7wu1-33">
          <mxGeometry x="680" y="297.75" width="60" height="64.5" as="geometry" />
        </mxCell>
        <mxCell id="6l5dRhKgw-I8UTFX7wu1-16" value="" style="image;sketch=0;aspect=fixed;html=1;points=[];align=center;fontSize=12;image=img/lib/mscae/Cache_Redis_Product.svg;" vertex="1" parent="6l5dRhKgw-I8UTFX7wu1-33">
          <mxGeometry x="680" y="459.75" width="50" height="42" as="geometry" />
        </mxCell>
        <mxCell id="6l5dRhKgw-I8UTFX7wu1-35" value="服务发现，注册，配置获取" style="text;html=1;align=center;verticalAlign=middle;whiteSpace=wrap;rounded=0;" vertex="1" parent="6l5dRhKgw-I8UTFX7wu1-33">
          <mxGeometry x="130" y="290" width="140" height="59.12" as="geometry" />
        </mxCell>
        <mxCell id="6l5dRhKgw-I8UTFX7wu1-36" value="服务发现，注册，配置获取" style="text;html=1;align=center;verticalAlign=middle;whiteSpace=wrap;rounded=0;" vertex="1" parent="6l5dRhKgw-I8UTFX7wu1-33">
          <mxGeometry x="340" y="201.75" width="120" height="38.25" as="geometry" />
        </mxCell>
        <mxCell id="6l5dRhKgw-I8UTFX7wu1-42" value="服务间调用" style="text;html=1;align=center;verticalAlign=middle;whiteSpace=wrap;rounded=0;" vertex="1" parent="6l5dRhKgw-I8UTFX7wu1-33">
          <mxGeometry x="400" y="520" width="60" height="30" as="geometry" />
        </mxCell>
        <mxCell id="6l5dRhKgw-I8UTFX7wu1-44" value="代理调用" style="text;html=1;align=center;verticalAlign=middle;whiteSpace=wrap;rounded=0;" vertex="1" parent="6l5dRhKgw-I8UTFX7wu1-33">
          <mxGeometry x="100" y="375" width="60" height="30" as="geometry" />
        </mxCell>
        <mxCell id="6l5dRhKgw-I8UTFX7wu1-45" value="代理调用" style="text;html=1;align=center;verticalAlign=middle;whiteSpace=wrap;rounded=0;" vertex="1" parent="6l5dRhKgw-I8UTFX7wu1-33">
          <mxGeometry x="260" y="600" width="60" height="30" as="geometry" />
        </mxCell>
        <mxCell id="6l5dRhKgw-I8UTFX7wu1-46" value="代理调用" style="text;html=1;align=center;verticalAlign=middle;whiteSpace=wrap;rounded=0;" vertex="1" parent="6l5dRhKgw-I8UTFX7wu1-33">
          <mxGeometry x="90" y="490" width="60" height="30" as="geometry" />
        </mxCell>
        <mxCell id="6l5dRhKgw-I8UTFX7wu1-49" value="数据存储与查询" style="text;html=1;align=center;verticalAlign=middle;whiteSpace=wrap;rounded=0;" vertex="1" parent="6l5dRhKgw-I8UTFX7wu1-33">
          <mxGeometry x="570" y="400" width="100" height="30" as="geometry" />
        </mxCell>
        <mxCell id="6l5dRhKgw-I8UTFX7wu1-55" value="网关" style="text;html=1;align=center;verticalAlign=middle;whiteSpace=wrap;rounded=0;" vertex="1" parent="6l5dRhKgw-I8UTFX7wu1-33">
          <mxGeometry y="420" width="60" height="30" as="geometry" />
        </mxCell>
        <mxCell id="6l5dRhKgw-I8UTFX7wu1-54" value="&lt;div style=&quot;font-size: medium; text-align: start;&quot; data-hash=&quot;b19ccdbf6f87f004a6434b22880b6f65&quot; data-version=&quot;3.0.0&quot;&gt;&lt;/div&gt;&lt;div style=&quot;font-size: medium; text-align: start;&quot; class=&quot;document&quot;&gt;&lt;div class=&quot;section&quot;&gt;&lt;h3 style=&quot;text-align: justify; line-height: 20pt; margin: 0pt;&quot; class=&quot;paragraph text-align-type-justify MsoNormal tco-title-heading 3&quot;&gt;&lt;span style=&quot;font-size: 12pt; font-family: 楷体; font-weight: normal; letter-spacing: 0pt; vertical-align: baseline;&quot; data-font-family=&quot;楷体&quot;&gt;Elastic&amp;nbsp;APM Server&lt;/span&gt;&lt;span lang=&quot;EN-US&quot;&gt;&lt;/span&gt;&lt;/h3&gt;&lt;/div&gt;&lt;/div&gt;" style="rounded=0;whiteSpace=wrap;html=1;" vertex="1" parent="6l5dRhKgw-I8UTFX7wu1-33">
          <mxGeometry x="320" y="690" width="160" height="70" as="geometry" />
        </mxCell>
        <mxCell id="6l5dRhKgw-I8UTFX7wu1-61" value="日志上报" style="text;html=1;align=center;verticalAlign=middle;whiteSpace=wrap;rounded=0;" vertex="1" parent="6l5dRhKgw-I8UTFX7wu1-33">
          <mxGeometry x="220" y="730" width="60" height="30" as="geometry" />
        </mxCell>
        <mxCell id="6l5dRhKgw-I8UTFX7wu1-62" value="日志上报" style="text;html=1;align=center;verticalAlign=middle;whiteSpace=wrap;rounded=0;" vertex="1" parent="6l5dRhKgw-I8UTFX7wu1-33">
          <mxGeometry x="540" y="670" width="60" height="30" as="geometry" />
        </mxCell>
        <mxCell id="6l5dRhKgw-I8UTFX7wu1-64" value="" style="shape=image;verticalLabelPosition=bottom;labelBackgroundColor=default;verticalAlign=top;aspect=fixed;imageAspect=0;image=data:image/svg+xml,PHN2ZyB4bWxucz0iaHR0cDovL3d3dy53My5vcmcvMjAwMC9zdmciIHZpZXdCb3g9IjAgMCAxNjIuNjEyIDI0LjQ2NSI+PHBhdGggZmlsbD0iI2M3MmM0OCIgZD0iTTUyLjc1MS40MTRoOS4xMDh2MjMuNjNoLTkuMTA4ek00MS43MTEuNzRsLTE4LjQ4OCA5LjkyYS45MTkuOTE5IDAgMCAxLS44NTYgMEwzLjg3OS43NEEyLjgwOCAyLjgwOCAwIDAgMCAyLjU1OC40MTRoLS4wMjNBMi40IDIuNCAwIDAgMCAwIDIuNjQxdjIxLjM3Nmg5LjFWMTMuODQyYS45MTguOTE4IDAgMCAxIDEuMzg1LS42ODJsMTAuMzYxIDUuNTY4YTMuNjM0IDMuNjM0IDAgMCAwIDMuMzM2LjAyOGwxMC45MzMtNS42MzRhLjkxNy45MTcgMCAwIDEgMS4zNzEuNjl2MTAuMjA1aDkuMVYyLjY0MUEyLjQgMi40IDAgMCAwIDQzLjA1NS40MTRoLS4wMjNhMi44MDggMi44MDggMCAwIDAtMS4zMjEuMzI2em02NS41NjQtLjMyNmgtOS4yMzd2MTAuNzU1YS45MTMuOTEzIDAgMCAxLTEuMzM4LjcwNkw3Mi43NjIuNjc1YTIuODI0IDIuODI0IDAgMCAwLTEuMTkxLS4yNjFoLS4wMTZhMi40IDIuNCAwIDAgMC0yLjUzNSAyLjIyN3YyMS4zNzdoOS4xNjNWMTMuMjc1YS45MTQuOTE0IDAgMCAxIDEuMzM3LS43MDdsMjQuMDMyIDExLjJhMi44MTMgMi44MTMgMCAwIDAgMS4xODguMjYgMi40IDIuNCAwIDAgMCAyLjUzNS0yLjIyN3ptNy4xNjEgMjMuNjNWLjQxNGg0LjE5MXYyMy42M3ptMjguODU2LjQyMWMtMTEuMjc0IDAtMTkuMjcyLTQuNy0xOS4yNzItMTIuMjMyQzEyNC4wMiA0Ljc0MSAxMzIuMDY2IDAgMTQzLjI5MiAwczE5LjMyIDQuNyAxOS4zMiAxMi4yMzMtNy45MDIgMTIuMjMyLTE5LjMyIDEyLjIzMnptMC0yMS4zMzNjLTguMzgzIDAtMTQuODQgMy4yMTctMTQuODQgOS4xIDAgNS45MjYgNi40NTcgOS4xIDE0Ljg0IDkuMXMxNC44ODctMy4xNzQgMTQuODg3LTkuMWMwLTUuODgzLTYuNTA0LTkuMS0xNC44ODctOS4xeiIvPjwvc3ZnPg==;" vertex="1" parent="6l5dRhKgw-I8UTFX7wu1-33">
          <mxGeometry x="628.5" y="620" width="163" height="24" as="geometry" />
        </mxCell>
        <mxCell id="6l5dRhKgw-I8UTFX7wu1-65" value="mysql" style="text;html=1;align=center;verticalAlign=middle;whiteSpace=wrap;rounded=0;" vertex="1" parent="6l5dRhKgw-I8UTFX7wu1-33">
          <mxGeometry x="680" y="350" width="60" height="30" as="geometry" />
        </mxCell>
        <mxCell id="6l5dRhKgw-I8UTFX7wu1-66" value="Redis" style="text;html=1;align=center;verticalAlign=middle;whiteSpace=wrap;rounded=0;" vertex="1" parent="6l5dRhKgw-I8UTFX7wu1-33">
          <mxGeometry x="620" y="466" width="60" height="30" as="geometry" />
        </mxCell>
        <mxCell id="6l5dRhKgw-I8UTFX7wu1-67" value="minio" style="text;html=1;align=center;verticalAlign=middle;whiteSpace=wrap;rounded=0;" vertex="1" parent="6l5dRhKgw-I8UTFX7wu1-33">
          <mxGeometry x="675" y="650" width="60" height="30" as="geometry" />
        </mxCell>
        <mxCell id="6l5dRhKgw-I8UTFX7wu1-70" value="文件操作" style="text;html=1;align=center;verticalAlign=middle;whiteSpace=wrap;rounded=0;" vertex="1" parent="6l5dRhKgw-I8UTFX7wu1-33">
          <mxGeometry x="550" y="466" width="60" height="30" as="geometry" />
        </mxCell>
        <mxCell id="6l5dRhKgw-I8UTFX7wu1-47" style="edgeStyle=orthogonalEdgeStyle;rounded=0;orthogonalLoop=1;jettySize=auto;html=1;exitX=0.5;exitY=1;exitDx=0;exitDy=0;entryX=0.567;entryY=0.991;entryDx=0;entryDy=0;entryPerimeter=0;" edge="1" parent="1" source="6l5dRhKgw-I8UTFX7wu1-10" target="6l5dRhKgw-I8UTFX7wu1-16">
          <mxGeometry relative="1" as="geometry" />
        </mxCell>
        <mxCell id="6l5dRhKgw-I8UTFX7wu1-48" style="edgeStyle=orthogonalEdgeStyle;rounded=0;orthogonalLoop=1;jettySize=auto;html=1;exitX=0.5;exitY=1;exitDx=0;exitDy=0;entryX=1;entryY=0.5;entryDx=0;entryDy=0;entryPerimeter=0;" edge="1" parent="1" source="6l5dRhKgw-I8UTFX7wu1-10" target="6l5dRhKgw-I8UTFX7wu1-15">
          <mxGeometry relative="1" as="geometry" />
        </mxCell>
        <mxCell id="6l5dRhKgw-I8UTFX7wu1-50" style="edgeStyle=orthogonalEdgeStyle;rounded=0;orthogonalLoop=1;jettySize=auto;html=1;exitX=0.75;exitY=0;exitDx=0;exitDy=0;entryX=0.5;entryY=0;entryDx=0;entryDy=0;entryPerimeter=0;" edge="1" parent="1" source="6l5dRhKgw-I8UTFX7wu1-11" target="6l5dRhKgw-I8UTFX7wu1-15">
          <mxGeometry relative="1" as="geometry" />
        </mxCell>
        <mxCell id="6l5dRhKgw-I8UTFX7wu1-51" value="数据调用" style="text;html=1;align=center;verticalAlign=middle;whiteSpace=wrap;rounded=0;" vertex="1" parent="1">
          <mxGeometry x="1020" y="590" width="60" height="30" as="geometry" />
        </mxCell>
        <mxCell id="6l5dRhKgw-I8UTFX7wu1-52" style="edgeStyle=orthogonalEdgeStyle;rounded=0;orthogonalLoop=1;jettySize=auto;html=1;exitX=1;exitY=0.5;exitDx=0;exitDy=0;entryX=0.53;entryY=0.027;entryDx=0;entryDy=0;entryPerimeter=0;" edge="1" parent="1" source="6l5dRhKgw-I8UTFX7wu1-11" target="6l5dRhKgw-I8UTFX7wu1-16">
          <mxGeometry relative="1" as="geometry">
            <Array as="points">
              <mxPoint x="1020" y="415" />
              <mxPoint x="1020" y="440" />
              <mxPoint x="1146" y="440" />
            </Array>
          </mxGeometry>
        </mxCell>
        <mxCell id="6l5dRhKgw-I8UTFX7wu1-53" value="数据存储与查询" style="text;html=1;align=center;verticalAlign=middle;whiteSpace=wrap;rounded=0;" vertex="1" parent="1">
          <mxGeometry x="1040" y="290" width="100" height="20" as="geometry" />
        </mxCell>
      </root>
    </mxGraphModel>
  </diagram>
</mxfile>
